<?xml version="1.0" encoding="UTF-8"?>
<!DOCTYPE svg  PUBLIC '-//W3C//DTD SVG 1.1//EN'  'http://www.w3.org/Graphics/SVG/1.1/DTD/svg11.dtd'>
<svg enable-background="new 0 0 841.89 297.64" version="1.1" viewBox="0 0 841.89 297.64" xml:space="preserve" xmlns="http://www.w3.org/2000/svg">
	<path d="m352.25 122.13c-0.486 0.208-0.937 0.415-1.354 0.624-1.458-5.414-2.429-11.068-2.915-16.968 5.274-3.816 10.34-8.153 15.198-13.012 0.139-0.069 0.243-0.138 0.312-0.207 4.927-4.929 9.368-10.064 13.325-15.407 5.83 0.417 11.415 1.354 16.759 2.812-0.277 0.415-0.486 0.866-0.625 1.352-3.816 9.23-2.742 18.564 3.227 28.002 0.624 0.972 1.284 1.944 1.978 2.915l-15.093 15.198c-0.902-0.695-1.875-1.354-2.916-1.978-9.437-6.039-18.736-7.149-27.896-3.331zm-18.216-12.908c0.901 8.328 2.602 16.169 5.1 23.525-1.943 2.775-3.574 6.003-4.892 9.681-2.359 6.8-3.158 13.878-2.395 21.235l-0.52 1.977-5.102 1.354c0.278 1.529 0.625 3.091 1.042 4.685l7.807-2.082 9.993-34.559c-3.47-8.743-5.622-18.217-6.454-28.417-1.527 0.902-3.053 1.768-4.579 2.601zm3.226-7.911c-0.139 0.276-0.278 0.521-0.417 0.728 0.832-0.555 1.7-1.11 2.602-1.665l0.105-0.104c0.208-0.14 0.381-0.244 0.52-0.313 5.83-4.095 11.416-8.779 16.76-14.053 5.274-5.342 9.958-10.93 14.053-16.758 0.138-0.209 0.278-0.417 0.416-0.624v-0.106c0.071 0 0.105-0.032 0.105-0.104 0.555-0.831 1.111-1.665 1.665-2.499 0.069-0.068 0.104-0.138 0.104-0.207-14.851 8.12-26.821 20.02-35.913 35.705zm-8.223 5.726c1.249-2.708 2.636-5.38 4.163-8.017 10.964-19.014 25.989-32.755 45.073-41.221h0.105c4.997-2.221 10.271-4.06 15.821-5.517 16.863-4.581 33.173-4.927 48.925-1.041 0.418 0.138 0.834 0.243 1.251 0.312 0.623 0.14 1.213 0.312 1.769 0.521h0.104c0.625 0.139 1.285 0.312 1.979 0.521 0.207 0.069 0.451 0.139 0.728 0.208 7.218 2.291 14.331 5.448 21.34 9.474 13.046 7.494 23.631 16.932 31.748 28.313 0.072 0.138 0.141 0.242 0.21 0.313 6.663 9.438 11.589 20.192 14.781 32.27 3.261 12.074 4.373 23.906 3.331 35.495-0.07 0.068-0.105 0.139-0.105 0.207v0.105c-1.316 13.879-5.726 27.342-13.219 40.39-4.025 7.007-8.642 13.326-13.846 18.945-0.138 0.069-0.241 0.174-0.311 0.312-0.486 0.553-1.007 1.073-1.562 1.562v0.102c-0.07 0-0.104 0.036-0.104 0.105-12.076 12.285-27.101 20.853-45.074 25.712-5.412 1.459-10.757 2.464-16.031 3.021-0.069 0-0.104 0.033-0.104 0.101h-0.313c-20.818 2.221-40.735-2.149-59.75-13.112-2.567-1.528-5.03-3.09-7.39-4.685-0.486-0.143-0.902-0.383-1.248-0.732-0.07-0.069-0.141-0.138-0.208-0.207-18.252-12.975-30.64-30.501-37.163-52.567-0.069-0.277-0.139-0.521-0.207-0.729-0.14-0.626-0.277-1.215-0.418-1.769-0.208-0.419-0.312-0.801-0.312-1.147-0.069-0.345-0.173-0.727-0.312-1.142-0.069-0.28-0.139-0.521-0.208-0.731-5.483-22.763-3.366-44.482 6.35-65.163 0.067-0.071 0.138-0.14 0.207-0.209zm173.73-3.437v0.208c0.556 7.358 1.838 14.748 3.852 22.173 2.013 7.565 4.615 14.643 7.807 21.235v0.105c0.556 0.972 1.076 1.976 1.562 3.017 0-8.464-1.146-17.105-3.435-25.919-2.36-8.813-5.69-16.896-9.994-24.254 0.071 1.112 0.141 2.222 0.208 3.332v0.103zm-4.996-3.746c-0.069-1.737-0.104-3.471-0.104-5.205-7.635-3.47-15.268-5.935-22.901-7.39-1.458-3.054-3.437-6.039-5.934-8.954-4.927-5.758-11.034-10.166-18.321-13.219l-0.415-0.417 1.562-5.933c-1.458-0.555-2.95-1.041-4.478-1.458l-2.289 8.744 24.15 25.086c9.507 1.321 19.086 4.234 28.73 8.746zm-89.522-20.924l3.54 30.188 35.706 9.576 17.903-24.462-23.942-24.776-33.207 9.474zm1.978 34.663l-26.441 26.544 9.682 36.123 36.224 9.783 26.441-26.544-9.681-36.224-36.225-9.682zm-1.769 8.537c4.79 3.261 10.408 5.76 16.863 7.494 6.453 1.734 12.595 2.36 18.425 1.875l5.621 21.129c-5.205 2.5-10.131 6.075-14.781 10.722-5.066 4.998-8.849 10.341-11.347 16.033l-20.923-5.623c0.555-6.107-0.069-12.523-1.874-19.258-1.734-6.384-4.234-11.97-7.495-16.758l15.511-15.614zm27.897-61.105l-0.521 0.21c-7.91-1.042-15.438-0.313-22.586 2.185-3.68 1.249-6.907 2.844-9.683 4.788-7.287-2.499-15.093-4.164-23.421-4.997-0.832 1.458-1.734 2.95-2.705 4.477 10.617 0.834 20.401 3.088 29.354 6.767l33.52-9.576 2.288-8.85c-1.526-0.416-3.054-0.763-4.58-1.041l-1.666 6.037zm-93.269 42.472c0.625 10.895 2.777 20.854 6.455 29.875l30.708 3.54 26.856-26.857-3.747-31.853c-8.814-3.401-18.425-5.378-28.834-5.933-4.164 5.898-8.953 11.554-14.365 16.966-5.414 5.413-11.104 10.167-17.073 14.262zm134.6-0.937c5.274 1.389 10.616 3.33 16.03 5.829 0.626 6.593 1.873 13.256 3.748 19.987 1.804 6.801 4.059 13.254 6.766 19.361-3.331 4.789-6.94 9.125-10.826 13.012-0.277-0.484-0.589-0.936-0.937-1.354-6.038-7.909-14.643-11.621-25.816-11.137-1.18 0.069-2.393 0.175-3.643 0.313l-5.413-20.507c1.041-0.417 2.047-0.903 3.02-1.458 9.924-5.205 15.545-12.733 16.861-22.588 0.069-0.487 0.139-0.973 0.21-1.458zm-112.01 124.19c1.734 0 3.469 0.032 5.205 0.103-4.232-9.022-7.044-18.01-8.433-26.959l-26.543-25.61-7.495 1.98c0.417 1.457 0.903 2.949 1.457 4.474l4.581-1.249 2.497 2.396c2.984 6.384 7.08 11.764 12.284 16.136 2.915 2.564 5.932 4.578 9.055 6.037 1.459 7.562 3.922 15.125 7.392 22.692zm12.491 5.307c-0.972-0.069-1.909-0.139-2.811-0.207-0.139 0-0.277-0.036-0.417-0.105h-0.52c-0.901-0.069-1.804-0.103-2.707-0.103 0.208 0.069 0.418 0.172 0.625 0.313 15.753 9.088 32.097 13.459 49.027 13.113v-0.101c-0.969-0.489-1.941-0.94-2.913-1.354-0.138-0.069-0.244-0.139-0.313-0.207-0.138-0.073-0.312-0.143-0.52-0.213-0.693-0.413-1.422-0.76-2.186-1.04l-5.309-2.29-12.284-3.956c-0.278-0.069-0.589-0.17-0.937-0.31-0.485-0.141-0.971-0.28-1.457-0.418l-17.278-3.122zm13.742-51.214l-24.776 18.322c1.458 9.295 4.512 18.632 9.162 28 7.216 0.626 14.502 1.944 21.859 3.956 7.425 1.944 14.435 4.477 21.027 7.601 6.454-4.307 12.108-8.991 16.968-14.054 1.734-1.805 3.399-3.643 4.995-5.518l-12.385-28.523-36.85-9.784zm5.517 9.056c0.415-0.834 0.832-1.631 1.248-2.396l21.026 5.519c-0.138 0.833-0.207 1.668-0.207 2.5-0.485 11.101 3.227 19.705 11.137 25.812 0.417 0.28 0.835 0.59 1.252 0.939-3.888 3.883-8.293 7.526-13.222 10.93-6.106-2.708-12.527-4.929-19.258-6.664v-0.103c-6.731-1.805-13.393-3.054-19.985-3.748-2.5-5.344-4.478-10.653-5.935-15.928 0.486 0 0.972-0.032 1.457-0.102 9.855-1.32 17.351-6.903 22.487-16.759zm59.749 36.851c6.456-1.253 12.457-3.748 18.01-7.498l3.955-1.041 3.643 3.644c1.181-1.04 2.326-2.114 3.436-3.225l-5.623-5.624-35.703 8.954c-1.182 1.525-2.464 3.018-3.853 4.477-4.856 5.274-10.514 10.166-16.967 14.676 1.527 0.765 3.053 1.598 4.579 2.501 6.802-4.929 12.771-10.341 17.905-16.241 3.332 0.276 6.871 0.069 10.618-0.623zm21.652-18.949c0.07-0.067 0.14-0.137 0.207-0.207l8.225-32.582-27.898-11.971-26.127 26.023 11.97 27.585c0.14 0.069 0.279 0.139 0.418 0.212l32.583-8.119c0.137-0.35 0.344-0.659 0.622-0.941zm-99.515-66.202l-30.188-3.54-9.264 32.167c0.068 0.207 0.138 0.451 0.207 0.727 0.069 0.277 0.069 0.553 0 0.834l24.15 23.315c0.208-0.069 0.382-0.069 0.521 0l24.15-17.903-9.576-35.6zm135.22 16.03c-0.832-1.525-1.665-3.054-2.495-4.578-4.442 6.314-9.267 11.901-14.471 16.757-1.736 1.598-3.471 3.122-5.204 4.583l-8.744 34.871 5.932 6.038c1.112-1.183 2.153-2.362 3.123-3.541l-3.851-3.958 0.624-2.288c4.302-5.969 7.113-12.455 8.432-19.466 0.695-3.817 0.902-7.393 0.626-10.723 5.828-5.065 11.172-10.961 16.028-17.695zm-4.891-9.47c-3.122-6.594-5.655-13.568-7.6-20.926-2.011-7.356-3.295-14.643-3.851-21.86-9.438-4.788-18.841-7.876-28.209-9.262l-19.05 25.71 9.889 36.643 28.419 12.283c2.289-1.805 4.476-3.712 6.557-5.725 4.997-4.86 9.612-10.479 13.845-16.863z" clip-rule="evenodd" fill="#333" fill-rule="evenodd"/>
	<path d="m740.84 71.271c4.375 5.69 7.322 10.792 8.849 15.303 13.187 11.796 22.936 24.218 29.251 37.265 0.554 0.071 1.25 0.173 2.082 0.313-0.277-0.763-0.521-1.527-0.729-2.292-7.148-21.997-20.299-38.86-39.453-50.589zm-67.766 79.529c10.134-5.136 21.34-9.889 33.624-14.26 5.898-17.42 8.153-32.269 6.767-44.553-5.621-5.205-12.562-9.993-20.819-14.365-17.42-1.11-34.074 5.272-49.966 19.152-2.568 7.358-4.06 16.275-4.477 26.754l34.871 27.272zm25.297-93.269c0.415 0.347 0.693 0.728 0.831 1.145 1.875-0.417 3.574-0.798 5.102-1.145-2.081-0.348-4.198-0.591-6.35-0.729 0.07 0.209 0.208 0.451 0.417 0.729zm-10.827 13.116c1.665-3.956 3.506-6.905 5.517-8.848-2.427-2.568-6.384-4.095-11.865-4.581-6.523 0.694-13.011 2.118-19.467 4.269-12.56 4.095-23.456 10.131-32.687 18.112-0.902 2.291-1.282 4.129-1.145 5.518v0.311c5.76-0.138 10.619 0.764 14.574 2.708 14.295-11.521 29.32-17.349 45.073-17.489zm-82.858 71.098c-2.498-5.693-3.887-11.52-4.163-17.489-5.553 18.113-5.242 36.676 0.935 55.691 1.457 4.58 3.298 9.229 5.519 13.948 0.833-1.665 1.665-3.123 2.498-4.373-6.039-17.21-7.636-33.135-4.789-47.777zm18.944-66.414c0.138-0.208 0.244-0.312 0.313-0.312 9.993-8.953 21.893-15.648 35.703-20.09 7.009-2.29 13.983-3.817 20.923-4.581h0.521c12.146-1.387 24.116-0.451 35.912 2.811l-0.104 0.104c6.524 1.804 13.012 4.303 19.468 7.495 0 0.069 0.068 0.139 0.207 0.208 24.776 12.7 41.5 32.268 50.173 58.709 0.417 1.458 0.868 2.916 1.354 4.373 7.078 25.052 4.58 49.305-7.495 72.76-0.277 0.557-0.554 1.182-0.833 1.875-3.956 7.287-8.569 13.983-13.846 20.092-11.52 12.977-26.162 22.346-43.927 28.104-13.533 4.371-26.823 6.003-39.869 4.892h-0.104c-12.561-1.109-24.879-4.753-36.954-10.93-0.069 0-0.139-0.034-0.207-0.104-19.224-9.785-33.345-23.422-42.368-40.91-3.191-6.036-5.726-11.971-7.598-17.8-7.286-22.208-7.009-43.824 0.831-64.852 0.626-2.013 1.389-4.025 2.292-6.036 0.9-1.943 1.909-3.991 3.019-6.142 0.415-0.903 0.866-1.805 1.353-2.706 5.691-10.549 12.771-19.535 21.236-26.96zm-2.081 12.178c-0.069-0.138-0.104-0.276-0.104-0.415-0.556 0.553-1.076 1.145-1.562 1.769 0.624-0.486 1.18-0.937 1.666-1.354zm99.097 7.496c0.765 12.005-1.63 26.302-7.181 42.886 10.062 8.121 18.183 17.247 24.357 27.378l32.479-7.703c3.054-8.189 4.753-16.204 5.1-24.046-5.482-14.714-15.545-28.626-30.186-41.742-8.884-0.137-17.073 0.936-24.569 3.227zm-86.606 33.831c-8.121 2.913-15.614 7.565-22.484 13.949-3.054 15.683-0.66 32.859 7.183 51.527 5.551 5.897 12.179 10.965 19.882 15.197 11.729-4.997 22.691-10.792 32.895-17.385-2.569-9.229-3.299-21.096-2.187-35.6l-35.289-27.688zm143.13 59.23c-0.068-9.092-2.15-16.934-6.245-23.527l-32.687 7.809c-3.886 9.784-10.896 20.125-21.026 31.02l9.89 25.607c6.521 0.624 15.023-1.595 25.503-6.662 2.913-2.568 5.622-5.343 8.118-8.327 4.928-5.481 9.266-11.728 13.012-18.737 0.21-0.486 0.486-1.041 0.833-1.666 0.903-1.872 1.768-3.714 2.602-5.517zm-56.524 43.304l-9.679-25.399c-9.993 0.347-21.652-2.534-34.976-8.642-10.064 6.663-20.888 12.491-32.479 17.489 1.804 6.107 4.025 11.312 6.663 15.615 17.834 6.523 29.077 11.415 33.727 14.676 3.262 0.138 6.523 0.138 9.786 0 13.323-4.164 22.308-8.744 26.958-13.739z" clip-rule="evenodd" fill="#333" fill-rule="evenodd"/>
	<path d="m152.6 61.076l5.309-7.078-9.785-0.313c-12.422 0.139-24.324 2.602-35.704 7.391-9.091 3.816-17.35 8.952-24.776 15.406l7.808 2.498 57.148-17.904zm-86.503 57.252l-4.373-6.142-0.729 1.77v0.104c-4.372 11.381-6.489 23.283-6.349 35.705 0.208 12.005 2.532 23.491 6.974 34.456l3.54-4.685 0.937-61.208zm10.201-41.117l4.997-4.79c0.069 0 0.104-0.034 0.104-0.104 8.467-7.495 17.87-13.429 28.21-17.8v-0.105c12.214-5.135 25.018-7.772 38.411-7.911 4.233-0.069 8.502 0.104 12.805 0.521 8.813 1.041 17.348 3.122 25.606 6.246 5.136 2.013 10.027 4.372 14.677 7.078 7.148 4.164 13.67 9.125 19.57 14.886 9.924 9.716 17.521 20.923 22.798 33.622v-0.104c2.636 6.384 4.649 12.943 6.036 19.674 1.179 6.037 1.84 12.249 1.978 18.633 0.069 8.396-0.799 16.583-2.603 24.566-1.041 4.719-2.464 9.368-4.267 13.949v0.104c-4.998 12.63-12.319 23.907-21.964 33.831-6.801 6.939-14.297 12.803-22.486 17.593-3.468 2.011-7.042 3.816-10.721 5.412-10.271 4.232-20.888 6.8-31.852 7.703l-6.663 0.208c-13.394 0.208-26.232-2.083-38.515-6.87h-0.104c-11.173-4.442-21.271-10.616-30.292-18.531h-0.104l-3.644-3.33c-9.715-9.438-17.176-20.332-22.38-32.686l-0.208-0.52v-0.207l-0.208-0.211c-5.067-12.074-7.738-24.807-8.016-38.201-0.139-13.394 2.116-26.232 6.767-38.515v-0.104l1.77-3.956h-0.105c4.927-11.171 11.728-21.199 20.403-30.081zm77.239 47.779l11.762-35.913-14.157-20.09-49.966 15.823-0.415 24.358 29.875 23.213 22.901-7.391zm41.845-41.013l-23.212 7.287-11.971 36.017 13.947 19.465 37.891-0.833 14.678-19.674-31.333-42.262zm3.853-16.343l-0.21 9.577 35.913 48.195 7.08 2.394c-1.25-5.482-2.984-10.86-5.205-16.135v-0.104c-4.928-11.798-11.971-22.208-21.132-31.229-5.067-4.926-10.548-9.159-16.446-12.698zm-126.06 54.546l-0.833 53.712 23.108 7.807 31.021-21.756 0.104-23.732-29.979-23.317-23.421 7.286zm164.78 60.896h0.104c1.319-3.678 2.464-7.356 3.436-11.034l-7.6 2.393-35.289 50.069-0.104 5.311c6.87-4.305 13.187-9.369 18.946-15.199v-0.104c8.952-9.231 15.788-19.709 20.507-31.436zm-26.024-30.084l-37.787 0.833-14.053 19.151 11.867 36.122 23.214 7.809 31.019-43.825-14.26-20.09zm-118.67 66.724l-4.788 1.458c7.911 6.663 16.759 11.901 26.544 15.718 11.45 4.442 23.386 6.594 35.809 6.455l4.058-0.105-3.226-4.578-58.397-18.948zm59.959-44.551l-22.588-7.496-31.021 21.86-0.312 24.565 51.111 16.656 14.781-19.673-11.971-35.912z" clip-rule="evenodd" fill="#333" fill-rule="evenodd"/>
</svg>
